<?xml version="1.0" encoding="utf-8"?>
<!-- Generator: Adobe Illustrator 15.0.0, SVG Export Plug-In . SVG Version: 6.00 Build 0)  -->
<!DOCTYPE svg PUBLIC "-//W3C//DTD SVG 1.1//EN" "http://www.w3.org/Graphics/SVG/1.1/DTD/svg11.dtd">
<svg version="1.1" id="Layer_1" xmlns:xml="http://www.w3.org/XML/1998/namespace"
	 xmlns="http://www.w3.org/2000/svg" xmlns:xlink="http://www.w3.org/1999/xlink" x="0px" y="0px" width="400px" height="400px"
	 viewBox="0 0 400 400" enable-background="new 0 0 400 400" xml:space="preserve">
<g>
	<polygon fill="none" points="119.846,334.008 119.842,334 72.038,282.756 72.038,282.756 72.038,334.008 	"/>
	<polygon fill="none" points="161.566,334.008 284.038,334.008 284.038,219.84 161.562,334 139.246,354.796 139.254,354.809 	"/>
	<polygon fill="none" points="72.038,164.6 72.038,164.6 73.242,163.48 142.598,237.84 266.838,122.004 72.038,122.004 	"/>
	<g>
		<g>
			<polygon points="72.038,164.6 72.038,122.004 266.838,122.004 266.846,122 305.434,86.004 36.038,86.004 36.038,198.164 
				36.038,198.16 			"/>
		</g>
	</g>
	<g>
		<g>
			<polygon points="284.038,334.008 161.566,334.008 139.254,354.809 139.246,354.796 139.242,354.8 119.846,334.008 
				72.038,334.008 72.038,282.756 36.038,244.16 36.038,244.156 36.038,370.008 320.038,370.008 320.038,186.26 300.038,204.908 
				284.038,219.84 			"/>
		</g>
	</g>
	<g>
		<g>
			<polygon points="329.462,80.248 142.062,254.968 72.702,180.608 30.102,220.328 139.902,338.008 369.902,123.608 			"/>
		</g>
	</g>
</g>
</svg>
