<svg xmlns="http://www.w3.org/2000/svg" id="Layer_1" viewBox="0 0 100 100" x="0px" y="0px" width="400px" height="400px" xmlns:xml="http://www.w3.org/XML/1998/namespace" xml:space="preserve" enable-background="new 0 0 100 100" version="1.0">
<path d="M 100 50 C 100 77.614 77.614 100 50 100 C 22.386 100 0 77.614 0 50 C 0 22.386 22.386 0 50 0 C 77.614 0 100 22.386 100 50 Z M 24.024 47.545 c 0.231 -7.002 1.444 -13.7 3.478 -19.893 l -16.703 -0.019 C 7.412 33.56 5.328 40.327 4.941 47.545 H 24.024 Z M 47.559 27.635 H 32.673 c -2.218 6.213 -3.523 12.898 -3.77 19.91 h 18.655 V 27.635 Z M 47.559 4.937 c -5.256 4.698 -9.693 10.769 -12.899 17.772 h 12.899 V 4.937 Z M 14.032 22.708 H 29.35 c 2.577 -6.159 6.12 -11.869 10.201 -16.596 C 29.015 8.488 20.001 14.842 14.032 22.708 Z M 95.059 47.545 c -0.387 -7.219 -2.472 -13.985 -5.858 -19.912 l -16.705 0.019 c 2.035 6.193 3.248 12.891 3.479 19.893 H 95.059 Z M 52.441 47.545 h 18.656 c -0.247 -7.012 -1.553 -13.697 -3.771 -19.91 H 52.441 V 47.545 Z M 52.441 22.708 h 12.9 c -3.207 -7.003 -7.644 -13.074 -12.9 -17.772 V 22.708 Z M 60.448 6.113 C 64.53 10.84 68.074 16.55 70.65 22.708 h 15.318 C 80 14.842 70.987 8.488 60.448 6.113 Z M 4.941 52.455 c 0.387 7.217 2.471 13.985 5.858 19.91 l 16.703 -0.018 c -2.034 -6.192 -3.247 -12.891 -3.478 -19.893 H 4.941 Z M 47.559 52.455 H 28.903 c 0.247 7.013 1.552 13.697 3.77 19.91 h 14.886 V 52.455 Z M 47.559 77.292 H 34.659 c 3.207 7.004 7.643 13.074 12.899 17.771 V 77.292 Z M 39.551 93.887 c -4.081 -4.729 -7.625 -10.437 -10.201 -16.596 H 14.032 C 20.001 85.157 29.015 91.511 39.551 93.887 Z M 75.974 52.455 c -0.23 7.002 -1.443 13.7 -3.479 19.893 l 16.705 0.018 c 3.387 -5.925 5.472 -12.693 5.858 -19.91 H 75.974 Z M 52.441 72.365 h 14.886 c 2.218 -6.213 3.523 -12.897 3.771 -19.91 H 52.441 V 72.365 Z M 52.441 95.063 c 5.257 -4.697 9.693 -10.768 12.9 -17.771 h -12.9 V 95.063 Z M 85.968 77.292 H 70.65 c -2.576 6.159 -6.12 11.867 -10.202 16.596 C 70.987 91.511 80 85.157 85.968 77.292 Z" />
</svg>