<svg xmlns="http://www.w3.org/2000/svg" id="Layer_1" viewBox="0 0 100 100" x="0px" y="0px" width="400px" height="400px" xmlns:xml="http://www.w3.org/XML/1998/namespace" xml:space="preserve" enable-background="new 0 0 100 100" version="1.1">
<path d="M 96.705 32.148 c -2.543 -6.651 -6.457 -12.624 -11.409 -17.561 C 76.358 5.68 64.068 0.142 50.483 0.012 C 50.322 0.011 50.162 0 50 0 c -8.984 0 -17.408 2.382 -24.695 6.53 C 14.702 12.567 6.528 22.365 2.592 34.114 c -1.66 4.956 -2.576 10.253 -2.589 15.765 C 0.003 49.92 0 49.959 0 50 c 0 2.961 0.272 5.857 0.766 8.677 c 0.685 3.907 1.815 7.659 3.351 11.198 c 7.627 17.583 25.057 29.918 45.397 30.113 C 49.677 99.989 49.837 100 50 100 c 8.961 0 17.363 -2.369 24.637 -6.496 C 89.777 84.91 100 68.654 100 50 C 100 43.708 98.827 37.693 96.705 32.148 Z M 29.643 18.708 c 0.464 -2.403 1.08 -4.543 1.82 -6.398 c 5.024 -2.476 10.612 -3.979 16.523 -4.259 c 1.481 1.218 2.995 2.734 4.505 4.522 c 1.765 2.088 3.523 4.549 5.224 7.36 c 4.026 6.658 7.718 15.258 10.336 25.416 c 0.496 1.928 0.931 3.848 1.316 5.755 c -5.58 3.208 -12.225 6.179 -19.778 8.586 c -5.066 1.614 -10.122 2.826 -15.026 3.628 c -0.953 -2.746 -1.833 -5.636 -2.614 -8.669 c -2.576 -9.999 -3.529 -19.207 -3.269 -26.935 C 28.791 24.426 29.123 21.406 29.643 18.708 Z M 8 50 c 0 -3.875 0.535 -7.622 1.518 -11.185 c 1.431 -5.188 3.824 -9.976 6.988 -14.151 c 1.468 -1.938 3.103 -3.74 4.878 -5.395 c -0.158 1.015 -0.291 2.058 -0.402 3.123 c -0.301 2.892 -0.426 5.961 -0.369 9.18 c 0.135 7.67 1.296 16.17 3.589 25.073 c 0.673 2.612 1.422 5.153 2.235 7.616 C 24.708 64.381 23 64.46 21.343 64.46 c -4.211 0 -7.974 -0.4 -11.171 -1.133 C 8.771 59.139 8 54.66 8 50 Z M 14.277 72.086 c 2.228 0.238 4.575 0.374 7.065 0.374 c 2.59 0 5.268 -0.145 8 -0.405 c 3.047 7.309 6.68 13.671 10.628 18.73 C 29.154 88.135 19.985 81.299 14.277 72.086 Z M 70.531 80.177 c -0.482 2.868 -1.167 5.388 -2.015 7.524 c -5.02 2.47 -10.602 3.97 -16.505 4.248 c -4.897 -4.024 -10.133 -11.262 -14.462 -21.037 c 4.758 -0.858 9.614 -2.053 14.468 -3.599 c 6.863 -2.188 13.145 -4.834 18.705 -7.782 C 71.604 67.025 71.555 74.088 70.531 80.177 Z M 75.797 43.354 c -2.304 -8.938 -5.483 -17.063 -9.199 -23.956 c -1.526 -2.832 -3.143 -5.459 -4.829 -7.842 c -0.573 -0.81 -1.154 -1.589 -1.743 -2.342 c 2.256 0.553 4.441 1.283 6.537 2.184 c 5.405 2.322 10.221 5.748 14.173 9.991 c 3.113 3.343 5.684 7.194 7.581 11.416 c -1.42 4.139 -5.494 8.963 -11.774 13.624 C 76.307 45.405 76.062 44.38 75.797 43.354 Z M 78.522 80.82 c 1.189 -7.613 1.061 -16.455 -0.331 -25.712 c 5.58 -3.707 10.076 -7.728 13.266 -11.832 C 91.811 45.467 92 47.711 92 50 C 92 62.183 86.809 73.148 78.522 80.82 Z" />
</svg>